<?xml version="1.0" standalone="no"?>
<!DOCTYPE svg PUBLIC "-//W3C//DTD SVG 20010904//EN"
 "http://www.w3.org/TR/2001/REC-SVG-20010904/DTD/svg10.dtd">
<svg version="1.0" xmlns="http://www.w3.org/2000/svg"
 width="210.000000pt" height="210.000000pt" viewBox="0 0 210.000000 210.000000"
 preserveAspectRatio="xMidYMid meet">

<g transform="translate(0.000000,210.000000) scale(0.100000,-0.100000)"
fill="#000000" stroke="none">
<path d="M135 1960 l-130 -130 388 -388 c213 -213 387 -392 387 -397 0 -6
-174 -182 -387 -392 l-388 -381 132 -134 133 -133 390 390 390 390 390 -390
390 -390 132 133 133 132 -390 390 -390 390 390 390 390 390 -130 130 -130
130 -390 -390 -390 -390 -390 390 c-214 214 -392 390 -395 390 -3 0 -64 -59
-135 -130z"/>
</g>
</svg>
