<svg xmlns="http://www.w3.org/2000/svg" viewBox="0 0 48 48" width="48px" height="48px"><link xmlns="" type="text/css" rel="stylesheet" id="dark-mode-custom-link"/><link xmlns="" type="text/css" rel="stylesheet" id="dark-mode-general-link"/><style xmlns="" lang="en" type="text/css" id="dark-mode-custom-style"/><style xmlns="" lang="en" type="text/css" id="dark-mode-native-style"/><style xmlns="" lang="en" type="text/css" id="dark-mode-native-sheet"/><path fill="#CFD8DC" d="M45,35c0,2.209-1.791,4-4,4H7c-2.209,0-4-1.791-4-4V13c0-2.209,1.791-4,4-4h34c2.209,0,4,1.791,4,4V35z"/><path fill="#3F51B5" d="M10.669,13C8.58,13,7,14.324,7,16.617V35h6.483C15.114,35,17,33.469,17,31.483V13H10.669z"/><path fill="#E53935" d="M22.669,13C20.58,13,19,14.324,19,16.617V35h6.483C27.114,35,29,33.469,29,31.483V13H22.669z"/><path fill="#388E3C" d="M34.669,13C32.58,13,31,14.324,31,16.617V35h6.483C39.114,35,41,33.469,41,31.483V13H34.669z"/><path fill="#FAFAFA" d="M15.806 24.453c0 1.835-2.369 2.803-4.101 2.803-1.884 0-3.567-1.12-3.926-2.545h1.274c.152.866 1.021 1.475 1.987 1.475 1.07 0 1.834-.764 1.834-1.732v-3.311h2.931V24.453zM38.606 24.038c.762 0 1.295-.759 1.295-1.519 0-.762-.663-1.422-1.425-1.422h-6.262v5.852h6.392c.863 0 1.522-.757 1.523-1.519C40.129 24.671 39.47 24.038 38.606 24.038zM34.651 21.707h1.979c.504 0 .961.453.961.959 0 .509-.457.967-.961.967h-1.979V21.707zM36.679 26.343h-2.027v-1.928h2.027c.508 0 .965.456.965.965C37.644 25.885 37.187 26.343 36.679 26.343zM27.811 22.176c-1.168-.27-2.286-.427-2.845-.427-1.218 0-2.181 1.017-2.181 2.303 0 1.292.963 2.311 2.181 2.311.559 0 1.677-.107 2.845-.38v1.021h-4.875c-1.522 0-2.79-1.342-2.79-2.952 0-1.607 1.268-2.948 2.79-2.948h4.875V22.176z"/></svg>